# xmcd
#
# Track frame offsets: 
#        150
#        15973
#        36338
#        52677
#        67776
#        83488
#        103004
#        122951
#        140209
#        154577
#
# Disc length: 2230 seconds
#
# Revision: 0
# Processed by: cddbd v1.5.1PL0 Copyright (c) Steve Scherf et al.
# Submitted via: ExactAudioCopy v0.95a5
#
DISCID=7408b40a
DTITLE=Billy Snow - Let's Get Funky
DYEAR=2004
DGENRE=R&B
TTITLE0=Ladies Night
TTITLE1=Can't Get Enough of Your Love
TTITLE2=September
TTITLE3=What You Won't Do For Love
TTITLE4=Ffun
TTITLE5=I Wish
TTITLE6=She's Playing Hard to Get
TTITLE7=Get Down On It
TTITLE8=That's The Way of the World
TTITLE9=Shining Star
EXTD=
EXTT0=
EXTT1=
EXTT2=
EXTT3=
EXTT4=
EXTT5=
EXTT6=
EXTT7=
EXTT8=
EXTT9=
PLAYORDER=
